<svg width="13" height="13" viewBox="0 0 13 13" fill="none" xmlns="http://www.w3.org/2000/svg">
<path d="M0.332726 11.9599C0.137464 12.1552 0.137464 12.4718 0.332726 12.667C0.527988 12.8623 0.844571 12.8623 1.03983 12.667L0.332726 11.9599ZM12.5 0.999768C12.5 0.723626 12.2761 0.499769 12 0.499768L7.49999 0.499768C7.22385 0.499768 6.99999 0.723626 6.99999 0.999768C6.99999 1.27591 7.22384 1.49977 7.49999 1.49977L11.5 1.49977L11.5 5.49977C11.5 5.77591 11.7238 5.99977 12 5.99977C12.2761 5.99977 12.5 5.77591 12.5 5.49977L12.5 0.999768ZM1.03983 12.667L12.3535 1.35332L11.6464 0.646215L0.332726 11.9599L1.03983 12.667Z" fill="currentColor"/>
</svg>
