<svg width="36" height="36" viewBox="0 0 36 36" fill="none" xmlns="http://www.w3.org/2000/svg">
<path d="M25.875 5.625C25.875 6.28125 26.0859 6.82031 26.5078 7.24219C26.9297 7.66406 27.4688 7.875 28.125 7.875C28.7812 7.875 29.3203 7.66406 29.7422 7.24219C30.1641 6.82031 30.375 6.28125 30.375 5.625C30.375 4.96875 30.1641 4.42969 29.7422 4.00781C29.3203 3.58594 28.7812 3.375 28.125 3.375C27.4688 3.375 26.9297 3.58594 26.5078 4.00781C26.0859 4.42969 25.875 4.96875 25.875 5.625ZM23.7656 9.21094L11.25 14.2031C11.25 14.3438 11.25 14.4844 11.25 14.625C11.25 15.4219 11.0859 16.1719 10.7578 16.875L20.6719 25.5938C21.375 25.1719 22.125 24.9141 22.9219 24.8203L25.5234 10.6172C24.8203 10.2422 24.2344 9.77344 23.7656 9.21094ZM28.8281 11.1797L26.2266 25.3828C27.1641 25.8984 27.8906 26.5781 28.4062 27.4219C28.9688 28.3125 29.25 29.2969 29.25 30.375C29.2031 31.9688 28.6641 33.3047 27.6328 34.3828C26.5547 35.4141 25.2188 35.9531 23.625 36C22.0312 35.9531 20.6953 35.4141 19.6172 34.3828C18.5859 33.3047 18.0469 31.9688 18 30.375C18 29.5781 18.1641 28.8281 18.4922 28.125L8.57812 19.4062C7.6875 19.9688 6.70312 20.25 5.625 20.25C4.03125 20.2031 2.69531 19.6641 1.61719 18.6328C0.585938 17.5547 0.046875 16.2188 0 14.625C0.046875 13.0312 0.585938 11.6953 1.61719 10.6172C2.69531 9.58594 4.03125 9.04688 5.625 9C7.45312 9.04688 8.90625 9.72656 9.98438 11.0391L22.5 6.04688C22.5 5.90625 22.5 5.76562 22.5 5.625C22.5469 4.03125 23.0859 2.69531 24.1172 1.61719C25.1953 0.585938 26.5312 0.046875 28.125 0C29.7188 0.046875 31.0547 0.585938 32.1328 1.61719C33.1641 2.69531 33.7031 4.03125 33.75 5.625C33.7031 7.07812 33.2344 8.32031 32.3438 9.35156C31.4062 10.3828 30.2344 10.9922 28.8281 11.1797ZM21.375 30.375C21.375 31.0312 21.5859 31.5703 22.0078 31.9922C22.4297 32.4141 22.9688 32.625 23.625 32.625C24.2812 32.625 24.8203 32.4141 25.2422 31.9922C25.6641 31.5703 25.875 31.0312 25.875 30.375C25.875 29.7188 25.6641 29.1797 25.2422 28.7578C24.8203 28.3359 24.2812 28.125 23.625 28.125C22.9688 28.125 22.4297 28.3359 22.0078 28.7578C21.5859 29.1797 21.375 29.7188 21.375 30.375ZM5.625 12.375C4.96875 12.375 4.42969 12.5859 4.00781 13.0078C3.58594 13.4297 3.375 13.9688 3.375 14.625C3.375 15.2812 3.58594 15.8203 4.00781 16.2422C4.42969 16.6641 4.96875 16.875 5.625 16.875C6.28125 16.875 6.82031 16.6641 7.24219 16.2422C7.66406 15.8203 7.875 15.2812 7.875 14.625C7.875 13.9688 7.66406 13.4297 7.24219 13.0078C6.82031 12.5859 6.28125 12.375 5.625 12.375Z" fill="#2C4D84"/>
</svg>
