<svg xmlns="http://www.w3.org/2000/svg" xmlns:xlink="http://www.w3.org/1999/xlink"><defs>
<clipPath id="clip0_355_861">
<rect width="52" height="11" fill="white" transform="translate(0 0.5)"/>
</clipPath>
</defs><symbol id="arrow-consultation" viewBox="0 0 13 13"><g fill="none">
<path d="M0.332726 11.9599C0.137464 12.1552 0.137464 12.4718 0.332726 12.667C0.527988 12.8623 0.844571 12.8623 1.03983 12.667L0.332726 11.9599ZM12.5 0.999768C12.5 0.723626 12.2761 0.499769 12 0.499768L7.49999 0.499768C7.22385 0.499768 6.99999 0.723626 6.99999 0.999768C6.99999 1.27591 7.22384 1.49977 7.49999 1.49977L11.5 1.49977L11.5 5.49977C11.5 5.77591 11.7238 5.99977 12 5.99977C12.2761 5.99977 12.5 5.77591 12.5 5.49977L12.5 0.999768ZM1.03983 12.667L12.3535 1.35332L11.6464 0.646215L0.332726 11.9599L1.03983 12.667Z" fill="currentColor"/>
</g></symbol><symbol id="circle-nodes" viewBox="0 0 36 36"><g fill="none">
<path d="M25.875 5.625C25.875 6.28125 26.0859 6.82031 26.5078 7.24219C26.9297 7.66406 27.4688 7.875 28.125 7.875C28.7812 7.875 29.3203 7.66406 29.7422 7.24219C30.1641 6.82031 30.375 6.28125 30.375 5.625C30.375 4.96875 30.1641 4.42969 29.7422 4.00781C29.3203 3.58594 28.7812 3.375 28.125 3.375C27.4688 3.375 26.9297 3.58594 26.5078 4.00781C26.0859 4.42969 25.875 4.96875 25.875 5.625ZM23.7656 9.21094L11.25 14.2031C11.25 14.3438 11.25 14.4844 11.25 14.625C11.25 15.4219 11.0859 16.1719 10.7578 16.875L20.6719 25.5938C21.375 25.1719 22.125 24.9141 22.9219 24.8203L25.5234 10.6172C24.8203 10.2422 24.2344 9.77344 23.7656 9.21094ZM28.8281 11.1797L26.2266 25.3828C27.1641 25.8984 27.8906 26.5781 28.4062 27.4219C28.9688 28.3125 29.25 29.2969 29.25 30.375C29.2031 31.9688 28.6641 33.3047 27.6328 34.3828C26.5547 35.4141 25.2188 35.9531 23.625 36C22.0312 35.9531 20.6953 35.4141 19.6172 34.3828C18.5859 33.3047 18.0469 31.9688 18 30.375C18 29.5781 18.1641 28.8281 18.4922 28.125L8.57812 19.4062C7.6875 19.9688 6.70312 20.25 5.625 20.25C4.03125 20.2031 2.69531 19.6641 1.61719 18.6328C0.585938 17.5547 0.046875 16.2188 0 14.625C0.046875 13.0312 0.585938 11.6953 1.61719 10.6172C2.69531 9.58594 4.03125 9.04688 5.625 9C7.45312 9.04688 8.90625 9.72656 9.98438 11.0391L22.5 6.04688C22.5 5.90625 22.5 5.76562 22.5 5.625C22.5469 4.03125 23.0859 2.69531 24.1172 1.61719C25.1953 0.585938 26.5312 0.046875 28.125 0C29.7188 0.046875 31.0547 0.585938 32.1328 1.61719C33.1641 2.69531 33.7031 4.03125 33.75 5.625C33.7031 7.07812 33.2344 8.32031 32.3438 9.35156C31.4062 10.3828 30.2344 10.9922 28.8281 11.1797ZM21.375 30.375C21.375 31.0312 21.5859 31.5703 22.0078 31.9922C22.4297 32.4141 22.9688 32.625 23.625 32.625C24.2812 32.625 24.8203 32.4141 25.2422 31.9922C25.6641 31.5703 25.875 31.0312 25.875 30.375C25.875 29.7188 25.6641 29.1797 25.2422 28.7578C24.8203 28.3359 24.2812 28.125 23.625 28.125C22.9688 28.125 22.4297 28.3359 22.0078 28.7578C21.5859 29.1797 21.375 29.7188 21.375 30.375ZM5.625 12.375C4.96875 12.375 4.42969 12.5859 4.00781 13.0078C3.58594 13.4297 3.375 13.9688 3.375 14.625C3.375 15.2812 3.58594 15.8203 4.00781 16.2422C4.42969 16.6641 4.96875 16.875 5.625 16.875C6.28125 16.875 6.82031 16.6641 7.24219 16.2422C7.66406 15.8203 7.875 15.2812 7.875 14.625C7.875 13.9688 7.66406 13.4297 7.24219 13.0078C6.82031 12.5859 6.28125 12.375 5.625 12.375Z" fill="#2C4D84"/>
</g></symbol><symbol id="close-burger" viewBox="0 0 16 16"><g fill="none">
<path fill-rule="evenodd" clip-rule="evenodd" d="M1.56087 0.376987L0.500208 1.43765L7.06246 7.9999L0.5 14.5624L1.56066 15.623L8.12312 9.06056L14.5624 15.4998L15.623 14.4392L9.18378 7.9999L15.6228 1.56083L14.5622 0.500173L8.12312 6.93924L1.56087 0.376987Z" fill="#25282E"/>
</g></symbol><symbol id="copy" viewBox="0 0 28 28"><g fill="none">
<rect width="28" height="28" rx="4" fill="#F0EEEB"/>
<path d="M13.125 7H19.25C19.7422 7.01823 20.1523 7.19141 20.4805 7.51953C20.8086 7.84766 20.9818 8.25781 21 8.75V14.875C20.9818 15.3672 20.8086 15.7773 20.4805 16.1055C20.1523 16.4336 19.7422 16.6068 19.25 16.625H13.125C12.6328 16.6068 12.2227 16.4336 11.8945 16.1055C11.5664 15.7773 11.3932 15.3672 11.375 14.875V8.75C11.3932 8.25781 11.5664 7.84766 11.8945 7.51953C12.2227 7.19141 12.6328 7.01823 13.125 7ZM8.75 11.375H10.5V13.125H8.75V19.25H14.875V17.5H16.625V19.25C16.6068 19.7422 16.4336 20.1523 16.1055 20.4805C15.7773 20.8086 15.3672 20.9818 14.875 21H8.75C8.25781 20.9818 7.84766 20.8086 7.51953 20.4805C7.19141 20.1523 7.01823 19.7422 7 19.25V13.125C7.01823 12.6328 7.19141 12.2227 7.51953 11.8945C7.84766 11.5664 8.25781 11.3932 8.75 11.375Z" fill="#2C4D84"/>
</g></symbol><symbol id="icon-close" viewBox="0 0 28 28"><g fill="none">
<path d="M0.918518 26.7279L26.3744 1.27208L27.0815 1.97919L1.62562 27.435L0.918518 26.7279Z" fill="#81858C"/>
<path d="M26.3744 26.7279L0.918518 1.27208L1.62562 0.564972L27.0815 26.0208L26.3744 26.7279Z" fill="#81858C"/>
</g></symbol><symbol id="line" viewBox="0 0 24 2"><g fill="none">
<path d="M0 1H24" stroke="#81858C"/>
</g></symbol><symbol id="navigation-arrow" viewBox="0 0 16 16"><g fill="none">
<path d="M10.8241 2.13145C11.0513 2.38136 11.0627 2.64264 10.8582 2.91527L6.29159 7.99308L10.8582 13.0709C11.0627 13.3435 11.0513 13.6048 10.8241 13.8547C10.5515 14.0592 10.2902 14.0478 10.0403 13.8206L5.1329 8.40203C4.95114 8.15212 4.95114 7.9022 5.1329 7.65229L10.0403 2.23369C10.2902 1.96105 10.5515 1.92697 10.8241 2.13145Z" fill="currentColor"/>
</g></symbol><symbol id="open-burger" viewBox="0 0 16 16"><g fill="none">
<rect x="0.5" y="0.5" width="3" height="3" rx="1.5" fill="#25282E"/>
<rect x="6.5" y="0.5" width="3" height="3" rx="1.5" fill="#25282E"/>
<rect x="12.5" y="0.5" width="3" height="3" rx="1.5" fill="#25282E"/>
<rect x="0.5" y="6.5" width="3" height="3" rx="1.5" fill="#25282E"/>
<rect x="6.5" y="6.5" width="3" height="3" rx="1.5" fill="#25282E"/>
<rect x="12.5" y="6.5" width="3" height="3" rx="1.5" fill="#25282E"/>
<rect x="0.5" y="12.5" width="3" height="3" rx="1.5" fill="#25282E"/>
<rect x="6.5" y="12.5" width="3" height="3" rx="1.5" fill="#25282E"/>
<rect x="12.5" y="12.5" width="3" height="3" rx="1.5" fill="#25282E"/>
</g></symbol><symbol id="ruso" viewBox="0 0 52 12"><g fill="none">
<g clip-path="url(#clip0_355_861)">
<path d="M13.4243 6.85301V0.751953H15.6153V6.77665C15.6153 8.19226 16.4376 9.16538 18.005 9.16538C19.5724 9.16538 20.3781 8.19129 20.3781 6.77665V0.751953H22.5847V6.83832C22.5847 9.36411 21.0927 11.0832 18.005 11.0832C14.9153 11.0832 13.4243 9.34845 13.4243 6.85301Z" fill="#81858C"/>
<path d="M27.791 9.46925L28.9619 7.8265C29.6775 8.57249 30.7877 9.19513 32.1877 9.19513C33.3752 9.19513 33.9528 8.64788 33.9528 8.06929C33.9528 6.27383 28.1102 7.50637 28.1102 3.68734C28.1102 1.99859 29.5708 0.598633 31.9595 0.598633C33.5729 0.598633 34.9112 1.08519 35.9156 2.01425L34.7134 3.5963C33.893 2.83562 32.7966 2.48612 31.7618 2.48612C30.8337 2.48612 30.3168 2.89632 30.3168 3.50525C30.3168 5.11764 36.1437 4.03782 36.1437 7.8265C36.1437 9.68267 34.8202 11.0826 32.0819 11.0826C30.1347 11.0826 28.7348 10.4277 27.791 9.46925Z" fill="#81858C"/>
<path d="M41.2124 5.79241C41.2124 2.7086 43.467 0.5 46.5508 0.5C49.6493 0.5 51.9039 2.7086 51.9039 5.79241C51.9039 8.87525 49.6493 11.0838 46.5508 11.0838C43.467 11.0838 41.2124 8.87525 41.2124 5.79241ZM49.664 5.79241C49.664 3.87555 48.4373 2.4335 46.5508 2.4335C44.6643 2.4335 43.4523 3.87555 43.4523 5.79241C43.4523 7.69459 44.6643 9.15132 46.5508 9.15132C48.4373 9.15132 49.664 7.69459 49.664 5.79241Z" fill="#81858C"/>
<path d="M5.93463 7.0351C7.03012 6.77665 8.15693 5.81822 8.15693 4.02275C8.15693 2.13624 6.86369 0.751953 4.74809 0.751953H0V2.65315H2.16063H2.32118H4.42894C5.29633 2.65315 5.95029 3.17005 5.95029 4.02275C5.95029 4.87447 5.29535 5.39236 4.42894 5.39236H2.32118H2.16063H0.000978824V10.9001H2.16161V7.29453H3.74463L5.73687 10.9011H8.21763L5.93463 7.0351Z" fill="#81858C"/>
</g>

</g></symbol><symbol id="select-arror" viewBox="0 0 16 16"><g fill="none">
<path d="M2.13145 5.17586C2.38136 4.94867 2.64264 4.93731 2.91527 5.14178L7.99308 9.70841L13.0709 5.14178C13.3435 4.93731 13.6048 4.94867 13.8547 5.17586C14.0592 5.4485 14.0478 5.70977 13.8206 5.95969L8.40203 10.8671C8.15212 11.0489 7.9022 11.0489 7.65229 10.8671L2.23369 5.95969C1.96105 5.70977 1.92697 5.4485 2.13145 5.17586Z" fill="#25282E"/>
</g></symbol><symbol id="shield" viewBox="0 0 36 36"><g fill="none">
<path d="M17.6877 0.298755L33.5964 6.49793L33.7458 7.91701C33.8453 9.70954 33.7209 11.8506 33.3723 14.3402C32.974 16.8299 32.2271 19.3942 31.1317 22.0332C29.9864 24.722 28.3433 27.2863 26.2022 29.7261C24.0113 32.1162 21.198 34.083 17.7624 35.6266L16.8661 36L15.9698 35.6266C12.5341 34.083 9.74576 32.1162 7.60468 29.7261C5.4636 27.2863 3.82045 24.722 2.67522 22.0332C1.52999 19.3942 0.783101 16.8299 0.434553 14.3402C0.0362128 11.8506 -0.0882686 9.70954 0.061109 7.91701L0.135798 6.49793L16.0445 0.298755L16.8661 0L17.6877 0.298755ZM16.8661 4.85477V31.0705C19.4055 29.7759 21.4968 28.1826 23.1399 26.2905C24.7831 24.4481 26.0528 22.4564 26.9491 20.3154C27.7956 18.3237 28.3931 16.4066 28.7416 14.5643C29.0902 12.722 29.2644 11.0788 29.2644 9.63486L16.8661 4.85477Z" fill="#2C4D84"/>
</g></symbol></svg>