<svg xmlns="http://www.w3.org/2000/svg" xmlns:xlink="http://www.w3.org/1999/xlink"><defs>
<clipPath id="clip0_355_861">
<rect width="52" height="11" fill="white" transform="translate(0 0.5)"/>
</clipPath>
</defs><symbol id="arrow-consultation" viewBox="0 0 13 13"><g fill="none">
<path d="M0.332726 11.9599C0.137464 12.1552 0.137464 12.4718 0.332726 12.667C0.527988 12.8623 0.844571 12.8623 1.03983 12.667L0.332726 11.9599ZM12.5 0.999768C12.5 0.723626 12.2761 0.499769 12 0.499768L7.49999 0.499768C7.22385 0.499768 6.99999 0.723626 6.99999 0.999768C6.99999 1.27591 7.22384 1.49977 7.49999 1.49977L11.5 1.49977L11.5 5.49977C11.5 5.77591 11.7238 5.99977 12 5.99977C12.2761 5.99977 12.5 5.77591 12.5 5.49977L12.5 0.999768ZM1.03983 12.667L12.3535 1.35332L11.6464 0.646215L0.332726 11.9599L1.03983 12.667Z" fill="currentColor"/>
</g></symbol><symbol id="close-burger" viewBox="0 0 16 16"><g fill="none">
<path fill-rule="evenodd" clip-rule="evenodd" d="M1.56087 0.376987L0.500208 1.43765L7.06246 7.9999L0.5 14.5624L1.56066 15.623L8.12312 9.06056L14.5624 15.4998L15.623 14.4392L9.18378 7.9999L15.6228 1.56083L14.5622 0.500173L8.12312 6.93924L1.56087 0.376987Z" fill="#25282E"/>
</g></symbol><symbol id="icon-close" viewBox="0 0 24 24"><g fill="none">
<path fill-rule="evenodd" clip-rule="evenodd" d="M18.7071 5.29289C19.0976 5.68342 19.0976 6.31658 18.7071 6.70711L6.70711 18.7071C6.31658 19.0976 5.68342 19.0976 5.29289 18.7071C4.90237 18.3166 4.90237 17.6834 5.29289 17.2929L17.2929 5.29289C17.6834 4.90237 18.3166 4.90237 18.7071 5.29289Z" fill="currentColor"/>
<path fill-rule="evenodd" clip-rule="evenodd" d="M5.29289 5.29289C5.68342 4.90237 6.31658 4.90237 6.70711 5.29289L18.7071 17.2929C19.0976 17.6834 19.0976 18.3166 18.7071 18.7071C18.3166 19.0976 17.6834 19.0976 17.2929 18.7071L5.29289 6.70711C4.90237 6.31658 4.90237 5.68342 5.29289 5.29289Z" fill="currentColor"/>
</g></symbol><symbol id="line" viewBox="0 0 24 2"><g fill="none">
<path d="M0 1H24" stroke="#81858C"/>
</g></symbol><symbol id="open-burger" viewBox="0 0 16 16"><g fill="none">
<rect x="0.5" y="0.5" width="3" height="3" rx="1.5" fill="#25282E"/>
<rect x="6.5" y="0.5" width="3" height="3" rx="1.5" fill="#25282E"/>
<rect x="12.5" y="0.5" width="3" height="3" rx="1.5" fill="#25282E"/>
<rect x="0.5" y="6.5" width="3" height="3" rx="1.5" fill="#25282E"/>
<rect x="6.5" y="6.5" width="3" height="3" rx="1.5" fill="#25282E"/>
<rect x="12.5" y="6.5" width="3" height="3" rx="1.5" fill="#25282E"/>
<rect x="0.5" y="12.5" width="3" height="3" rx="1.5" fill="#25282E"/>
<rect x="6.5" y="12.5" width="3" height="3" rx="1.5" fill="#25282E"/>
<rect x="12.5" y="12.5" width="3" height="3" rx="1.5" fill="#25282E"/>
</g></symbol><symbol id="ruso" viewBox="0 0 52 12"><g fill="none">
<g clip-path="url(#clip0_355_861)">
<path d="M13.4243 6.85301V0.751953H15.6153V6.77665C15.6153 8.19226 16.4376 9.16538 18.005 9.16538C19.5724 9.16538 20.3781 8.19129 20.3781 6.77665V0.751953H22.5847V6.83832C22.5847 9.36411 21.0927 11.0832 18.005 11.0832C14.9153 11.0832 13.4243 9.34845 13.4243 6.85301Z" fill="#81858C"/>
<path d="M27.791 9.46925L28.9619 7.8265C29.6775 8.57249 30.7877 9.19513 32.1877 9.19513C33.3752 9.19513 33.9528 8.64788 33.9528 8.06929C33.9528 6.27383 28.1102 7.50637 28.1102 3.68734C28.1102 1.99859 29.5708 0.598633 31.9595 0.598633C33.5729 0.598633 34.9112 1.08519 35.9156 2.01425L34.7134 3.5963C33.893 2.83562 32.7966 2.48612 31.7618 2.48612C30.8337 2.48612 30.3168 2.89632 30.3168 3.50525C30.3168 5.11764 36.1437 4.03782 36.1437 7.8265C36.1437 9.68267 34.8202 11.0826 32.0819 11.0826C30.1347 11.0826 28.7348 10.4277 27.791 9.46925Z" fill="#81858C"/>
<path d="M41.2124 5.79241C41.2124 2.7086 43.467 0.5 46.5508 0.5C49.6493 0.5 51.9039 2.7086 51.9039 5.79241C51.9039 8.87525 49.6493 11.0838 46.5508 11.0838C43.467 11.0838 41.2124 8.87525 41.2124 5.79241ZM49.664 5.79241C49.664 3.87555 48.4373 2.4335 46.5508 2.4335C44.6643 2.4335 43.4523 3.87555 43.4523 5.79241C43.4523 7.69459 44.6643 9.15132 46.5508 9.15132C48.4373 9.15132 49.664 7.69459 49.664 5.79241Z" fill="#81858C"/>
<path d="M5.93463 7.0351C7.03012 6.77665 8.15693 5.81822 8.15693 4.02275C8.15693 2.13624 6.86369 0.751953 4.74809 0.751953H0V2.65315H2.16063H2.32118H4.42894C5.29633 2.65315 5.95029 3.17005 5.95029 4.02275C5.95029 4.87447 5.29535 5.39236 4.42894 5.39236H2.32118H2.16063H0.000978824V10.9001H2.16161V7.29453H3.74463L5.73687 10.9011H8.21763L5.93463 7.0351Z" fill="#81858C"/>
</g>

</g></symbol></svg>