<svg width="28" height="28" viewBox="0 0 28 28" fill="none" xmlns="http://www.w3.org/2000/svg">
<rect width="28" height="28" rx="4" fill="#F0EEEB"/>
<path d="M13.125 7H19.25C19.7422 7.01823 20.1523 7.19141 20.4805 7.51953C20.8086 7.84766 20.9818 8.25781 21 8.75V14.875C20.9818 15.3672 20.8086 15.7773 20.4805 16.1055C20.1523 16.4336 19.7422 16.6068 19.25 16.625H13.125C12.6328 16.6068 12.2227 16.4336 11.8945 16.1055C11.5664 15.7773 11.3932 15.3672 11.375 14.875V8.75C11.3932 8.25781 11.5664 7.84766 11.8945 7.51953C12.2227 7.19141 12.6328 7.01823 13.125 7ZM8.75 11.375H10.5V13.125H8.75V19.25H14.875V17.5H16.625V19.25C16.6068 19.7422 16.4336 20.1523 16.1055 20.4805C15.7773 20.8086 15.3672 20.9818 14.875 21H8.75C8.25781 20.9818 7.84766 20.8086 7.51953 20.4805C7.19141 20.1523 7.01823 19.7422 7 19.25V13.125C7.01823 12.6328 7.19141 12.2227 7.51953 11.8945C7.84766 11.5664 8.25781 11.3932 8.75 11.375Z" fill="#2C4D84"/>
</svg>
