<svg width="36" height="36" viewBox="0 0 36 36" fill="none" xmlns="http://www.w3.org/2000/svg">
<path d="M17.6877 0.298755L33.5964 6.49793L33.7458 7.91701C33.8453 9.70954 33.7209 11.8506 33.3723 14.3402C32.974 16.8299 32.2271 19.3942 31.1317 22.0332C29.9864 24.722 28.3433 27.2863 26.2022 29.7261C24.0113 32.1162 21.198 34.083 17.7624 35.6266L16.8661 36L15.9698 35.6266C12.5341 34.083 9.74576 32.1162 7.60468 29.7261C5.4636 27.2863 3.82045 24.722 2.67522 22.0332C1.52999 19.3942 0.783101 16.8299 0.434553 14.3402C0.0362128 11.8506 -0.0882686 9.70954 0.061109 7.91701L0.135798 6.49793L16.0445 0.298755L16.8661 0L17.6877 0.298755ZM16.8661 4.85477V31.0705C19.4055 29.7759 21.4968 28.1826 23.1399 26.2905C24.7831 24.4481 26.0528 22.4564 26.9491 20.3154C27.7956 18.3237 28.3931 16.4066 28.7416 14.5643C29.0902 12.722 29.2644 11.0788 29.2644 9.63486L16.8661 4.85477Z" fill="#2C4D84"/>
</svg>
