<svg width="157" height="44" viewBox="0 0 157 44" fill="none" xmlns="http://www.w3.org/2000/svg">
<path d="M38.454 34.8608C38.2085 34.8608 37.9072 34.805 37.5501 34.6934C37.2153 34.5818 36.914 34.3809 36.6462 34.0908C36.4007 33.7783 36.278 33.3208 36.278 32.7182C36.278 32.138 36.4007 31.4573 36.6462 30.6761C36.8917 29.895 37.193 29.0804 37.5501 28.2323C37.9295 27.3842 38.3089 26.5919 38.6883 25.8554C39.09 25.0966 39.4248 24.4829 39.6926 24.0142C39.9604 23.5232 40.3845 23.2777 40.9648 23.2777H43.0403C42.7948 23.4786 42.5493 23.6906 42.3038 23.9138C42.0583 24.137 41.7794 24.4717 41.4669 24.9181C41.1768 25.3644 40.7974 26.0228 40.3287 26.8932C40.1278 27.2503 39.9046 27.719 39.6591 28.2993C39.4137 28.8572 39.1682 29.4375 38.9227 30.0401C38.6772 30.6427 38.4763 31.2118 38.3201 31.7474C38.1638 32.2607 38.0857 32.6736 38.0857 32.986C38.0857 33.7225 38.3312 34.0908 38.8222 34.0908C39.3579 34.0908 40.0051 33.6556 40.7639 32.7852C41.3888 32.0487 42.0025 31.1671 42.6051 30.1405C43.2077 29.1139 43.7768 28.0538 44.3125 26.9602C44.8704 25.8666 45.3614 24.8846 45.7854 24.0142C46.0309 23.5232 46.4661 23.2777 47.0911 23.2777H48.9323C48.4413 23.6794 47.9391 24.282 47.4258 25.0855C46.9348 25.8889 46.388 26.9155 45.7854 28.1654C45.6292 28.5001 45.4284 28.9242 45.1829 29.4375C44.9374 29.9508 44.7142 30.4976 44.5133 31.0779C44.3348 31.6581 44.2455 32.2384 44.2455 32.8187C44.2455 33.5998 44.5245 33.9904 45.0824 33.9904C45.8412 33.9904 46.5777 33.4659 47.2919 32.4169C48.0061 31.368 48.7091 30.0289 49.401 28.3997C49.5795 28.3997 49.6799 28.4109 49.7023 28.4332C49.7469 28.4555 49.7804 28.5448 49.8027 28.701C49.5572 29.3036 49.2559 29.962 48.8988 30.6761C48.564 31.368 48.1735 32.0375 47.7271 32.6848C47.3031 33.332 46.8232 33.8565 46.2876 34.2582C45.7743 34.6599 45.2052 34.8608 44.5803 34.8608C44.0223 34.8608 43.5648 34.6599 43.2077 34.2582C42.8506 33.8341 42.6721 33.2427 42.6721 32.4839C42.6721 31.8813 42.7837 31.2341 43.0069 30.5422C42.6274 31.2118 42.1922 31.8813 41.7012 32.5508C41.2102 33.2204 40.6858 33.7783 40.1278 34.2247C39.5699 34.6487 39.0119 34.8608 38.454 34.8608Z" fill="#2C4D84"/>
<path d="M51.9233 35.1286C52.7267 33.4994 53.4967 31.8925 54.2332 30.3079C54.9697 28.701 55.7285 27.1722 56.5096 25.7215C56.956 24.9181 57.3354 24.3601 57.6478 24.0477C57.9603 23.7129 58.3732 23.5455 58.8865 23.5455C59.065 23.5455 59.2547 23.579 59.4556 23.646C59.6565 23.6906 59.8573 23.7129 60.0582 23.7129C60.1921 23.7129 60.2925 23.7017 60.3595 23.6794C60.047 23.858 59.6341 24.3043 59.1208 25.0185C58.6298 25.7104 58.1277 26.5138 57.6144 27.4289C57.101 28.3439 56.6435 29.2031 56.2418 30.0066C56.6658 29.4933 57.1122 28.98 57.5809 28.4667C58.0496 27.9533 58.5629 27.4623 59.1208 26.9937C59.6565 26.525 60.2925 26.0451 61.029 25.5541C61.7878 25.0408 62.5243 24.6168 63.2385 24.282C63.9527 23.9472 64.5218 23.7799 64.9458 23.7799C65.1021 23.7799 65.2136 23.791 65.2806 23.8133C65.2806 23.8133 65.1578 24.0365 64.9123 24.4829C64.6668 24.9069 64.3544 25.476 63.975 26.1902C63.6179 26.8821 63.2497 27.6297 62.8703 28.4332C62.4908 29.2143 62.1449 29.9731 61.8325 30.7096C61.5423 31.4238 61.3526 32.0264 61.2634 32.5174C61.1964 32.8075 61.1629 33.0753 61.1629 33.3208C61.1629 33.6779 61.2299 33.9123 61.3638 34.0238C61.4977 34.1354 61.6428 34.1912 61.799 34.1912C62.223 34.1912 62.6582 34.0015 63.1046 33.6221C63.5509 33.2427 63.975 32.7629 64.3767 32.1826C64.8008 31.58 65.1913 30.944 65.5484 30.2744C65.9055 29.6049 66.2068 28.98 66.4523 28.3997C66.7201 28.3997 66.854 28.5001 66.854 28.701C66.6085 29.3036 66.2961 29.9731 65.9167 30.7096C65.5596 31.4238 65.1467 32.1045 64.678 32.7517C64.2317 33.3989 63.7295 33.9346 63.1715 34.3586C62.6136 34.7827 62.011 34.9947 61.3638 34.9947C60.9174 34.9947 60.4487 34.8384 59.9577 34.526C59.4891 34.2135 59.2547 33.6333 59.2547 32.7852C59.2547 32.5397 59.277 32.283 59.3217 32.0152C59.3663 31.7251 59.4444 31.4126 59.556 31.0779C59.7346 30.6315 59.9466 30.1517 60.1921 29.6383C60.4376 29.125 60.8393 28.422 61.3973 27.5293C61.5535 27.2838 61.6428 27.0941 61.6651 26.9602C61.7097 26.8263 61.732 26.7147 61.732 26.6254C61.732 26.3576 61.6093 26.2237 61.3638 26.2237C61.1629 26.2237 60.8616 26.3353 60.4599 26.5585C60.0805 26.7816 59.6007 27.1722 59.0204 27.7302C58.4624 28.2658 57.7929 29.0246 57.0118 30.0066C56.253 30.9886 55.3714 32.4393 54.3671 34.3586C54.2109 34.6487 54.0323 34.805 53.8314 34.8273C53.6529 34.8496 53.3962 34.8719 53.0615 34.8942C52.8383 34.9166 52.6263 34.9277 52.4254 34.9277C52.2245 34.95 52.0572 35.017 51.9233 35.1286Z" fill="#2C4D84"/>
<path d="M73.7132 34.9612C73.1998 34.9612 72.7423 34.8161 72.3406 34.526C71.9612 34.2359 71.7715 33.6444 71.7715 32.7517C71.7715 32.3723 71.7938 32.0152 71.8384 31.6804C71.9054 31.3457 71.9835 30.9886 72.0728 30.6092C71.8719 30.944 71.5929 31.3568 71.2359 31.8478C70.8788 32.3388 70.477 32.8187 70.0307 33.2873C69.6066 33.756 69.1603 34.1466 68.6916 34.459C68.2452 34.7715 67.8212 34.9277 67.4195 34.9277C66.8392 34.9277 66.3705 34.6711 66.0134 34.1577C65.6563 33.6221 65.4778 32.9303 65.4778 32.0822C65.4778 31.1671 65.6898 30.1851 66.1139 29.1362C66.5379 28.0872 67.1182 27.0829 67.8547 26.1233C68.5912 25.1636 69.4393 24.3825 70.3989 23.7799C71.3586 23.1773 72.3629 22.876 73.4119 22.876C73.9252 22.876 74.4162 22.9653 74.8848 23.1438C75.3535 23.3 75.7664 23.5678 76.1235 23.9472C76.2797 24.1035 76.3578 24.282 76.3578 24.4829C76.3578 24.6168 76.302 24.7284 76.1905 24.8177C76.0789 24.9069 75.9338 24.9292 75.7553 24.8846C75.5098 24.1035 74.9853 23.7129 74.1818 23.7129C73.8024 23.7129 73.3672 23.8357 72.8762 24.0812C72.2736 24.3936 71.6264 24.8958 70.9346 25.5876C70.265 26.2572 69.629 27.0271 69.0264 27.8975C68.4461 28.7456 67.9663 29.6049 67.5869 30.4753C67.2075 31.3457 67.0177 32.138 67.0177 32.8521C67.0177 33.5886 67.2967 33.9569 67.8547 33.9569C68.3457 33.9569 68.8478 33.7225 69.3611 33.2539C69.8968 32.7852 70.3989 32.2049 70.8676 31.5131C71.3586 30.7989 71.805 30.0959 72.2067 29.404C72.6084 28.7121 72.9209 28.1542 73.144 27.7302C73.4788 27.1276 73.7913 26.6254 74.0814 26.2237C74.3715 25.822 74.7844 25.6211 75.3201 25.6211C75.5656 25.6211 75.811 25.6546 76.0565 25.7215C76.302 25.7885 76.5587 25.7996 76.8265 25.755C76.157 26.4245 75.5656 27.2168 75.0522 28.1319C74.5612 29.0469 74.1818 29.9508 73.914 30.8435C73.6462 31.7139 73.5123 32.4504 73.5123 33.053C73.5123 33.7225 73.7355 34.0573 74.1818 34.0573C74.5389 34.0573 74.9183 33.8565 75.3201 33.4547C75.7441 33.053 76.1458 32.5508 76.5252 31.9483C76.927 31.3234 77.2952 30.6985 77.63 30.0735C77.9647 29.4263 78.2326 28.8684 78.4334 28.3997C78.545 28.3997 78.6343 28.4109 78.7012 28.4332C78.7905 28.4555 78.8351 28.5448 78.8351 28.701C78.8128 28.7903 78.7682 28.8907 78.7012 29.0023C78.6566 29.0916 78.5785 29.2589 78.4669 29.5044C78.2884 29.8615 78.0429 30.3414 77.7304 30.944C77.418 31.5465 77.0497 32.1603 76.6257 32.7852C76.2016 33.3878 75.7441 33.9011 75.2531 34.3251C74.7621 34.7492 74.2488 34.9612 73.7132 34.9612Z" fill="#2C4D84"/>
<path d="M73.1909 44C72.923 44 72.6999 43.9665 72.5213 43.8996C72.3205 43.8549 72.0638 43.8326 71.7513 43.8326C71.8406 43.6987 72.0638 43.3081 72.4209 42.6609C72.7557 42.036 73.1685 41.2437 73.6595 40.284C74.1505 39.3467 74.675 38.3201 75.233 37.2042C75.7686 36.1106 76.2931 35.0282 76.8064 33.9569C77.3197 32.8633 77.7549 31.859 78.112 30.944C78.4914 30.0066 78.7369 29.2589 78.8485 28.701C78.7369 28.701 78.6365 28.6787 78.5472 28.634C78.4579 28.5894 78.4244 28.5113 78.4468 28.3997C78.4468 28.3997 78.5137 28.1988 78.6476 27.7971C78.7815 27.3954 78.9154 26.9155 79.0493 26.3576C79.1833 25.7773 79.2502 25.2529 79.2502 24.7842C79.2502 24.4717 79.2167 24.2039 79.1498 23.9807C79.0828 23.7575 78.9601 23.6348 78.7815 23.6125L80.4554 23.3447C80.5893 23.3223 80.712 23.3112 80.8236 23.3112C80.9352 23.2889 81.0356 23.2777 81.1249 23.2777C81.3258 23.2777 81.4597 23.3558 81.5266 23.512C81.6159 23.646 81.6606 23.9361 81.6606 24.3825C81.6606 24.9404 81.5601 25.6546 81.3593 26.525C81.1807 27.3731 80.9687 28.1207 80.7232 28.7679C80.9687 28.3662 81.2812 27.8529 81.6606 27.228C82.0623 26.6031 82.5198 25.967 83.0331 25.3198C83.5464 24.6726 84.0821 24.137 84.64 23.7129C85.198 23.2665 85.7448 23.0434 86.2804 23.0434C86.392 23.0434 86.537 23.0657 86.7156 23.1103C87.3405 23.2665 87.7757 23.579 88.0212 24.0477C88.289 24.494 88.4229 25.0297 88.4229 25.6546C88.4229 26.3241 88.289 27.0606 88.0212 27.8641C87.7757 28.6675 87.4409 29.4598 87.0169 30.2409C86.5928 30.9997 86.1242 31.6916 85.6108 32.3165C84.9859 33.0976 84.2383 33.7225 83.3679 34.1912C82.4975 34.6599 81.6048 34.8942 80.6897 34.8942C79.864 34.8942 79.094 34.6822 78.3798 34.2582L75.1325 42.2592C74.8201 43.018 74.5076 43.4978 74.1952 43.6987C73.8827 43.8996 73.5479 44 73.1909 44ZM79.6185 34.1912C80.2434 34.1912 80.9464 33.9011 81.7275 33.3208C82.5086 32.7406 83.2563 32.0041 83.9705 31.1113C84.707 30.1963 85.3207 29.2813 85.8117 28.3662C86.1465 27.7413 86.392 27.1722 86.5482 26.6589C86.7044 26.1233 86.7825 25.6657 86.7825 25.2863C86.7825 24.4159 86.4701 23.9807 85.8452 23.9807C85.5551 23.9807 85.1756 24.137 84.707 24.4494C84.2606 24.7619 83.7361 25.331 83.1335 26.1567C82.4863 27.0495 81.7721 28.1765 80.991 29.5379C80.2322 30.877 79.4511 32.2942 78.6476 33.7895C78.9154 34.0573 79.239 34.1912 79.6185 34.1912Z" fill="#2C4D84"/>
<path d="M100.908 21.7043C100.35 21.7043 99.7584 21.6262 99.1335 21.4699C98.5309 21.3137 97.9172 21.1575 97.2922 21.0013C96.6897 20.845 96.1206 20.7669 95.5849 20.7669C95.1386 20.7669 94.7257 20.845 94.3463 21.0013C93.9669 21.1352 93.6544 21.4142 93.4089 21.8382L93.3085 22.0056C93.2415 22.0949 93.1857 22.1395 93.1411 22.1395C93.0965 22.1395 93.0518 22.106 93.0072 22.0391C92.9625 21.9721 92.9514 21.894 92.9737 21.8047C93.2192 21.1798 93.6656 20.6888 94.3128 20.3317C94.96 19.9523 95.6965 19.7626 96.5223 19.7626C97.1025 19.7626 97.839 19.8407 98.7318 19.997C99.6468 20.1532 100.473 20.2313 101.209 20.2313C101.678 20.2313 102.202 20.209 102.782 20.1643C103.385 20.0974 103.954 19.9523 104.49 19.7291C105.048 19.4836 105.472 19.0931 105.762 18.5574C105.985 18.5574 106.097 18.6356 106.097 18.7918C105.673 19.7961 105.092 20.5326 104.356 21.0013C103.619 21.4699 102.47 21.7043 100.908 21.7043ZM87.5839 34.8608C87.3384 34.8608 87.1375 34.8608 86.9813 34.8608C86.8028 34.8831 86.6242 34.9389 86.4457 35.0281C87.2714 33.4436 88.0526 31.859 88.7891 30.2744C89.5256 28.6675 90.2732 27.1499 91.032 25.7215C91.4784 24.9181 91.8466 24.3601 92.1368 24.0477C92.4492 23.7129 92.8621 23.5455 93.3754 23.5455C93.554 23.5455 93.7437 23.579 93.9445 23.646C94.1454 23.6906 94.3463 23.7129 94.5471 23.7129C94.681 23.7129 94.7815 23.7017 94.8484 23.6794C94.536 23.858 94.1342 24.3043 93.6432 25.0185C93.1522 25.7104 92.6501 26.5138 92.1368 27.4289C91.6235 28.3439 91.1659 29.2031 90.7642 30.0066C91.1883 29.4933 91.6235 28.98 92.0698 28.4667C92.5385 27.9533 93.0518 27.4623 93.6098 26.9937C94.1008 26.5696 94.6141 26.1121 95.1497 25.6211C95.7077 25.1078 96.2545 24.6726 96.7901 24.3155C97.3257 23.9584 97.7944 23.7799 98.1961 23.7799C98.3523 23.7799 98.4528 23.791 98.4974 23.8133C98.9215 23.9919 99.1335 24.282 99.1335 24.6837C99.1335 24.8176 99.0777 25.0185 98.9661 25.2863C98.676 26.0451 98.2966 26.8263 97.8279 27.6297C97.3815 28.4109 96.9575 29.2031 96.5557 30.0066C96.8905 29.6049 97.3034 29.1139 97.7944 28.5336C98.3077 27.9533 98.821 27.44 99.3344 26.9937C99.8253 26.5473 100.45 26.0786 101.209 25.5876C101.968 25.0966 102.716 24.6726 103.452 24.3155C104.189 23.9584 104.78 23.7799 105.226 23.7799C105.383 23.7799 105.494 23.791 105.561 23.8133C105.561 23.8133 105.438 24.0365 105.193 24.4829C104.947 24.9069 104.635 25.476 104.255 26.1902C103.898 26.8821 103.53 27.6297 103.151 28.4332C102.771 29.2143 102.425 29.9731 102.113 30.7096C101.823 31.4238 101.633 32.0264 101.544 32.5174C101.477 32.8075 101.443 33.0753 101.443 33.3208C101.443 33.6779 101.51 33.9123 101.644 34.0238C101.778 34.1354 101.923 34.1912 102.079 34.1912C102.526 34.1912 102.961 34.0015 103.385 33.6221C103.831 33.2427 104.267 32.7629 104.691 32.1826C105.115 31.58 105.494 30.944 105.829 30.2744C106.186 29.6049 106.487 28.98 106.733 28.3997C107.001 28.3997 107.134 28.5001 107.134 28.701C106.889 29.3036 106.577 29.9731 106.197 30.7096C105.84 31.4238 105.427 32.1045 104.958 32.7517C104.49 33.3989 103.976 33.9346 103.419 34.3586C102.861 34.7827 102.258 34.9947 101.611 34.9947C101.142 34.9947 100.696 34.8384 100.272 34.526C99.87 34.2135 99.6691 33.6333 99.6691 32.7852C99.6691 31.8701 99.8811 30.9551 100.305 30.0401C100.752 29.125 101.209 28.2881 101.678 27.5293C101.901 27.1499 102.013 26.8486 102.013 26.6254C102.013 26.3576 101.879 26.2237 101.611 26.2237C101.388 26.2237 101.075 26.3353 100.673 26.5585C100.294 26.7816 99.8142 27.1722 99.2339 27.7302C98.8768 28.0649 98.4528 28.5336 97.9618 29.1362C97.4931 29.7165 97.0133 30.3525 96.5223 31.0444C96.0313 31.7362 95.6072 32.4169 95.2501 33.0865C94.8931 33.756 94.6587 34.3475 94.5471 34.8608C94.2124 34.8608 93.9445 34.7269 93.7437 34.459C93.5428 34.1689 93.4424 33.8341 93.4424 33.4547C93.4424 33.3878 93.4424 33.3208 93.4424 33.2539C93.4424 33.1869 93.4535 33.1088 93.4759 33.0195C93.5875 32.3277 93.766 31.7474 94.0115 31.2787C94.257 30.7877 94.536 30.2186 94.8484 29.5714C95.0046 29.2813 95.1832 28.9465 95.3841 28.5671C95.5849 28.1654 95.7635 27.7859 95.9197 27.4289C96.0759 27.0495 96.154 26.737 96.154 26.4915C96.154 26.2683 96.0648 26.1567 95.8862 26.1567C95.6853 26.1567 95.4175 26.2572 95.0828 26.458C94.7703 26.6589 94.469 26.8932 94.1789 27.161C93.8887 27.4065 93.6656 27.5962 93.5093 27.7302C92.9514 28.2658 92.2707 29.0358 91.4672 30.0401C90.6861 31.0444 89.8269 32.4727 88.8895 34.3251C88.7556 34.5706 88.5994 34.7269 88.4208 34.7938C88.2423 34.8384 87.9633 34.8608 87.5839 34.8608Z" fill="#2C4D84"/>
<path d="M106.458 34.3586C106.436 34.5818 106.302 34.738 106.056 34.8273C105.833 34.8942 105.61 34.9277 105.387 34.9277C105.03 34.9277 104.762 34.9835 104.583 35.0951C104.583 34.6487 104.706 34.0238 104.951 33.2204C105.197 32.3946 105.487 31.5131 105.822 30.5757C106.179 29.616 106.536 28.7233 106.893 27.8975C107.272 27.0495 107.585 26.3911 107.83 25.9224C108.366 24.9404 108.812 24.3155 109.17 24.0477C109.549 23.7799 109.984 23.646 110.475 23.646C110.922 23.646 111.234 23.6683 111.412 23.7129C111.613 23.7352 111.758 23.7464 111.848 23.7464C111.357 24.0142 110.776 24.6391 110.107 25.6211C109.46 26.6031 108.846 27.6967 108.266 28.9019C108.444 28.7233 108.645 28.5782 108.868 28.4667C109.114 28.3551 109.393 28.2993 109.705 28.2993C110.129 28.2993 110.497 28.3774 110.81 28.5336C111.122 28.6675 111.558 28.7345 112.116 28.7345C112.54 28.7345 112.819 28.6006 112.952 28.3327C113.31 27.5293 113.678 26.7482 114.057 25.9893C114.437 25.2082 114.749 24.561 114.995 24.0477C115.128 23.7575 115.307 23.5678 115.53 23.4786C115.776 23.3893 116.043 23.3447 116.334 23.3447H118.141C117.762 23.6571 117.438 23.9472 117.171 24.2151C116.925 24.4606 116.68 24.7619 116.434 25.1189C116.211 25.476 115.921 25.9893 115.564 26.6589C115.274 27.2168 114.928 27.9422 114.526 28.8349C114.124 29.7276 113.823 30.5199 113.622 31.2118C113.533 31.4573 113.455 31.7474 113.388 32.0822C113.343 32.4169 113.321 32.7294 113.321 33.0195C113.321 33.3766 113.376 33.6779 113.488 33.9234C113.6 34.1689 113.789 34.2917 114.057 34.2917C114.481 34.2917 114.916 34.1131 115.363 33.756C115.809 33.3766 116.244 32.8968 116.668 32.3165C117.092 31.7139 117.483 31.0667 117.84 30.3748C118.22 29.683 118.543 29.0246 118.811 28.3997C118.989 28.3997 119.101 28.422 119.146 28.4667C119.19 28.5113 119.213 28.5894 119.213 28.701C118.945 29.3705 118.61 30.0847 118.208 30.8435C117.829 31.58 117.383 32.2719 116.869 32.9191C116.378 33.5663 115.831 34.102 115.229 34.526C114.649 34.9277 114.024 35.1286 113.354 35.1286C112.685 35.1286 112.205 34.9277 111.915 34.526C111.647 34.1243 111.513 33.6221 111.513 33.0195C111.513 32.7071 111.546 32.3723 111.613 32.0152C111.703 31.6581 111.803 31.301 111.915 30.944C112.004 30.6761 112.104 30.3972 112.216 30.107C112.328 29.7946 112.45 29.4933 112.584 29.2031C112.45 29.3817 112.283 29.5268 112.082 29.6383C111.881 29.7276 111.625 29.7723 111.312 29.7723C111 29.7723 110.743 29.7276 110.542 29.6383C110.341 29.5491 110.129 29.4598 109.906 29.3705C109.683 29.2813 109.393 29.2366 109.036 29.2366C108.812 29.2366 108.578 29.2813 108.333 29.3705C108.109 29.4598 107.931 29.6607 107.797 29.9731C107.462 30.7542 107.172 31.5242 106.927 32.283C106.703 33.0418 106.547 33.7337 106.458 34.3586Z" fill="#2C4D84"/>
<path d="M121.232 34.9947C120.406 34.9947 119.659 34.7269 118.989 34.1912C118.342 33.6556 118.018 32.841 118.018 31.7474C118.018 30.8324 118.219 29.8615 118.621 28.8349C119.045 27.8083 119.592 26.8486 120.261 25.9559C120.953 25.0408 121.712 24.3043 122.538 23.7464C123.386 23.1661 124.234 22.876 125.082 22.876C125.506 22.876 125.919 22.9987 126.321 23.2442C126.722 23.4897 126.923 23.9138 126.923 24.5164C126.923 25.0743 126.711 25.6881 126.287 26.3576C125.863 27.0271 125.261 27.652 124.48 28.2323C124.145 28.4778 123.721 28.7121 123.207 28.9353C122.694 29.1585 122.181 29.3482 121.667 29.5044C121.154 29.6383 120.73 29.7053 120.395 29.7053C120.284 29.9731 120.172 30.3302 120.061 30.7766C119.971 31.2229 119.927 31.6804 119.927 32.1491C119.927 32.7071 120.038 33.2092 120.261 33.6556C120.485 34.102 120.897 34.3251 121.5 34.3251C122.237 34.3251 122.917 34.1131 123.542 33.6891C124.189 33.265 124.759 32.7294 125.25 32.0822C125.763 31.4349 126.198 30.7766 126.555 30.107C126.912 29.4375 127.191 28.8684 127.392 28.3997C127.66 28.3997 127.794 28.5001 127.794 28.701C127.504 29.3259 127.169 30.0066 126.789 30.7431C126.432 31.4796 125.997 32.1714 125.484 32.8187C124.993 33.4436 124.39 33.968 123.676 34.3921C122.984 34.7938 122.17 34.9947 121.232 34.9947ZM120.63 29.1027C120.942 29.1027 121.467 28.9911 122.203 28.7679C122.94 28.5224 123.609 28.143 124.212 27.6297C124.792 27.1164 125.238 26.5585 125.551 25.9559C125.863 25.331 126.019 24.8065 126.019 24.3825C126.019 23.8915 125.841 23.646 125.484 23.646C125.216 23.646 124.848 23.8245 124.379 24.1816C123.91 24.5387 123.33 25.1413 122.638 25.9893C122.214 26.525 121.813 27.1052 121.433 27.7302C121.054 28.3551 120.786 28.8126 120.63 29.1027Z" fill="#2C4D84"/>
<path d="M122.131 44C121.864 44 121.64 43.9665 121.462 43.8996C121.261 43.8549 121.004 43.8326 120.692 43.8326C120.781 43.6987 121.004 43.3081 121.361 42.6609C121.696 42.036 122.109 41.2437 122.6 40.284C123.091 39.3467 123.616 38.3201 124.174 37.2042C124.709 36.1106 125.234 35.0282 125.747 33.9569C126.26 32.8633 126.695 31.859 127.053 30.944C127.432 30.0066 127.677 29.2589 127.789 28.701C127.677 28.701 127.577 28.6787 127.488 28.634C127.398 28.5894 127.365 28.5113 127.387 28.3997C127.387 28.3997 127.454 28.1988 127.588 27.7971C127.722 27.3954 127.856 26.9155 127.99 26.3576C128.124 25.7773 128.191 25.2529 128.191 24.7842C128.191 24.4717 128.157 24.2039 128.09 23.9807C128.023 23.7575 127.901 23.6348 127.722 23.6125L129.396 23.3447C129.53 23.3223 129.653 23.3112 129.764 23.3112C129.876 23.2889 129.976 23.2777 130.065 23.2777C130.266 23.2777 130.4 23.3558 130.467 23.512C130.556 23.646 130.601 23.9361 130.601 24.3825C130.601 24.9404 130.501 25.6546 130.3 26.525C130.121 27.3731 129.909 28.1207 129.664 28.7679C129.909 28.3662 130.222 27.8529 130.601 27.228C131.003 26.6031 131.46 25.967 131.974 25.3198C132.487 24.6726 133.023 24.137 133.581 23.7129C134.139 23.2665 134.685 23.0434 135.221 23.0434C135.333 23.0434 135.478 23.0657 135.656 23.1103C136.281 23.2665 136.716 23.579 136.962 24.0477C137.23 24.494 137.363 25.0297 137.363 25.6546C137.363 26.3241 137.23 27.0606 136.962 27.8641C136.716 28.6675 136.382 29.4598 135.957 30.2409C135.533 30.9997 135.065 31.6916 134.551 32.3165C133.927 33.0976 133.179 33.7225 132.308 34.1912C131.438 34.6599 130.545 34.8942 129.63 34.8942C128.805 34.8942 128.035 34.6822 127.32 34.2582L124.073 42.2592C123.761 43.018 123.448 43.4978 123.136 43.6987C122.823 43.8996 122.489 44 122.131 44ZM128.559 34.1912C129.184 34.1912 129.887 33.9011 130.668 33.3208C131.449 32.7406 132.197 32.0041 132.911 31.1113C133.648 30.1963 134.261 29.2813 134.752 28.3662C135.087 27.7413 135.333 27.1722 135.489 26.6589C135.645 26.1233 135.723 25.6657 135.723 25.2863C135.723 24.4159 135.411 23.9807 134.786 23.9807C134.496 23.9807 134.116 24.137 133.648 24.4494C133.201 24.7619 132.677 25.331 132.074 26.1567C131.427 27.0495 130.713 28.1765 129.932 29.5379C129.173 30.877 128.392 32.2942 127.588 33.7895C127.856 34.0573 128.18 34.1912 128.559 34.1912Z" fill="#2C4D84"/>
<path d="M145.697 30.6761C145.474 31.1448 145.217 31.5912 144.927 32.0152C145.016 32.0375 145.117 32.0487 145.229 32.0487C145.764 32.0487 146.333 31.7809 146.936 31.2452C147.561 30.6873 148.174 29.7499 148.777 28.4332C149.134 27.652 149.491 26.8821 149.848 26.1233C150.228 25.3421 150.562 24.6503 150.853 24.0477C150.987 23.7799 151.165 23.6013 151.388 23.512C151.611 23.4005 151.879 23.3447 152.192 23.3447H153.999C153.62 23.6348 153.296 23.9249 153.029 24.2151C152.783 24.4829 152.504 24.8623 152.192 25.3533C151.902 25.822 151.5 26.525 150.987 27.4623C150.786 27.8417 150.54 28.3774 150.25 29.0692C149.982 29.7388 149.737 30.4418 149.514 31.1783C149.29 31.9148 149.179 32.562 149.179 33.12C149.179 33.4547 149.223 33.7337 149.313 33.9569C149.424 34.1801 149.625 34.2917 149.915 34.2917C150.339 34.2917 150.775 34.1131 151.221 33.756C151.667 33.3766 152.102 32.8968 152.527 32.3165C152.951 31.7139 153.341 31.0667 153.698 30.3748C154.078 29.683 154.401 29.0246 154.669 28.3997C154.937 28.3997 155.071 28.5001 155.071 28.701C154.803 29.3705 154.468 30.0847 154.066 30.8435C153.687 31.58 153.241 32.2719 152.727 32.9191C152.236 33.5663 151.69 34.102 151.087 34.526C150.507 34.9277 149.882 35.1286 149.212 35.1286C148.766 35.1286 148.342 34.9612 147.94 34.6264C147.538 34.2693 147.338 33.7225 147.338 32.986C147.338 32.5397 147.449 31.9483 147.672 31.2118C147.271 31.7474 146.858 32.1157 146.434 32.3165C146.01 32.5174 145.552 32.6178 145.061 32.6178C144.86 32.6178 144.682 32.6066 144.525 32.5843C143.923 33.2985 143.231 33.9011 142.45 34.3921C141.669 34.8608 140.81 35.0951 139.872 35.0951C138.957 35.0951 138.299 34.8384 137.897 34.3251C137.518 33.8118 137.328 33.1758 137.328 32.4169C137.328 31.9706 137.384 31.5354 137.495 31.1113C137.607 30.6873 137.741 30.2633 137.897 29.8392C138.12 29.3036 138.433 28.6564 138.834 27.8975C139.236 27.1387 139.682 26.3911 140.173 25.6546C140.664 24.9181 141.155 24.3043 141.646 23.8133C142.137 23.3223 142.573 23.0768 142.952 23.0768C143.131 23.0768 143.32 23.1103 143.521 23.1773C143.722 23.2219 143.934 23.2442 144.157 23.2442C144.247 23.2442 144.325 23.2331 144.392 23.2108C144.258 23.2777 144.046 23.4897 143.756 23.8468C143.465 24.1816 143.131 24.5945 142.751 25.0855C142.394 25.5765 142.026 26.0786 141.646 26.5919C141.267 27.1052 140.932 27.5628 140.642 27.9645C141.022 27.5628 141.524 27.161 142.149 26.7593C142.774 26.3353 143.432 26.1233 144.124 26.1233C144.883 26.1233 145.441 26.3353 145.798 26.7593C146.155 27.1834 146.333 27.6855 146.333 28.2658C146.333 28.6675 146.266 29.0916 146.132 29.5379C146.021 29.962 145.876 30.3414 145.697 30.6761ZM142.517 30.6092C142.517 30.2967 142.617 30.0512 142.818 29.8727C143.019 29.6941 143.242 29.6049 143.488 29.6049C143.733 29.6049 143.912 29.6718 144.023 29.8057C144.157 29.9396 144.224 30.0959 144.224 30.2744C144.224 30.3414 144.224 30.3972 144.224 30.4418C144.358 30.0624 144.447 29.7165 144.492 29.404C144.537 29.0916 144.559 28.8349 144.559 28.634C144.559 28.1877 144.47 27.8194 144.291 27.5293C144.113 27.2168 143.8 27.0606 143.354 27.0606C142.796 27.0606 142.182 27.3731 141.513 27.998C140.843 28.6229 140.24 29.4263 139.705 30.4083C139.37 31.0332 139.125 31.58 138.968 32.0487C138.834 32.5174 138.767 32.9637 138.767 33.3878C138.767 33.7449 138.857 34.035 139.035 34.2582C139.214 34.4814 139.537 34.5929 140.006 34.5929C140.43 34.5929 140.955 34.3698 141.58 33.9234C142.227 33.477 142.818 32.8633 143.354 32.0822C142.796 31.6804 142.517 31.1894 142.517 30.6092Z" fill="#2C4D84"/>
<path d="M15.5557 19.8407H13.5247V15.8904H2.03094V19.8407H0V14.0604H1.56226C2.16485 12.9891 2.65585 11.4268 3.05757 9.39589C3.43698 7.36495 3.63784 5.26706 3.63784 3.07989V0H13.7925V14.0604H15.5557V19.8407ZM11.6947 14.0604V1.83008H5.6911V3.99493C5.6911 5.91428 5.51256 7.83363 5.15547 9.70834C4.79838 11.5831 4.37433 13.0337 3.88334 14.0604H11.6947Z" fill="#25282E"/>
<path d="M28.917 15.8904H27.02V6.807H26.953L23.5384 15.8904H21.7976L18.3829 6.807H18.316V15.8904H16.4189V4.37433H19.1417L22.6457 13.7033H22.6903L26.1942 4.37433H28.917V15.8904Z" fill="#25282E"/>
<path d="M33.2594 15.8904H30.8268V4.37433H32.7238V13.7702H32.7685L37.9462 4.37433H40.3789V15.8904H38.4819V6.49455H38.4372L33.2594 15.8904Z" fill="#25282E"/>
<path d="M51.151 6.04819H47.0222V15.8904H45.1251V6.04819H40.9963V4.37433H51.151V6.04819Z" fill="#25282E"/>
<path d="M53.5589 4.37433V6.00355C54.3847 4.68679 55.6791 4.01725 57.4423 4.01725C59.0492 4.01725 60.3213 4.5752 61.2586 5.64646C62.196 6.74005 62.687 8.21304 62.687 10.0654C62.687 11.9401 62.2183 13.4131 61.281 14.529C60.3436 15.6449 59.0938 16.1806 57.5315 16.1806C55.88 16.1806 54.5856 15.5557 53.6705 14.2835V20.3317H51.7735V4.37433H53.5589ZM57.1521 5.60183C56.0362 5.60183 55.1658 6.00355 54.5409 6.807C53.916 7.61045 53.6036 8.70403 53.6036 10.0878C53.6036 11.4938 53.916 12.5874 54.5632 13.3908C55.2105 14.1943 56.1032 14.596 57.2191 14.596C58.2903 14.596 59.1607 14.1943 59.7857 13.3908C60.4106 12.5874 60.723 11.4938 60.723 10.1101C60.723 8.70403 60.3882 7.61045 59.7633 6.807C59.1384 6.00355 58.268 5.60183 57.1521 5.60183Z" fill="#25282E"/>
<path d="M66.543 15.8904H64.1103V4.37433H66.0073V13.7702H66.052L71.2298 4.37433H73.6624V15.8904H71.7654V6.49455H71.7207L66.543 15.8904Z" fill="#25282E"/>
<path d="M83.765 0C83.6088 0.937357 83.2517 1.69617 82.6714 2.25412C82.0911 2.81207 81.3546 3.10221 80.4173 3.10221C79.5022 3.10221 78.7434 2.81207 78.1185 2.2318C77.4936 1.65153 77.1365 0.915039 77.0249 0H78.1632C78.4979 1.16054 79.2344 1.74081 80.395 1.74081C81.4885 1.74081 82.225 1.16054 82.6268 0H83.765ZM78.0516 15.9128H75.6189V4.39665H77.5159V13.7925H77.5606L82.7384 4.39665H85.171V15.9128H83.274V6.51687H83.2293L78.0516 15.9128Z" fill="#25282E"/>
<path d="M107.667 7.87826C107.667 9.84225 106.998 11.3599 105.659 12.4088C104.32 13.4578 102.668 13.9711 100.726 13.9711V15.8904H98.6284V13.9711C96.6868 13.9711 95.0352 13.4355 93.6962 12.3642C92.3571 11.2929 91.6875 9.79762 91.6875 7.87826C91.6875 5.95891 92.3571 4.46361 93.7185 3.3477C95.0576 2.2318 96.7091 1.67385 98.6284 1.67385V0H100.726V1.67385C102.668 1.67385 104.32 2.2318 105.659 3.32539C106.998 4.44129 107.667 5.95891 107.667 7.87826ZM105.547 7.87826C105.547 6.47223 105.101 5.40096 104.208 4.64215C103.315 3.88334 102.155 3.48161 100.726 3.41466V12.2749C102.199 12.1633 103.36 11.7616 104.23 11.0474C105.101 10.3332 105.547 9.2843 105.547 7.87826ZM98.6284 12.2749V3.39234C97.1778 3.48161 96.0172 3.88334 95.1245 4.64215C94.2318 5.40096 93.8078 6.47223 93.8078 7.87826C93.8078 9.2843 94.2318 10.3332 95.1022 11.0474C95.9726 11.7616 97.1555 12.1633 98.6284 12.2749Z" fill="#25282E"/>
<path d="M113.968 4.03956C115.709 4.03956 117.048 4.5752 118.03 5.64646C118.99 6.69541 119.481 8.1684 119.481 10.0654C119.481 12.0294 118.99 13.547 118.03 14.6183C117.048 15.7119 115.687 16.2475 113.946 16.2475C112.183 16.2475 110.799 15.7119 109.817 14.6406C108.813 13.5694 108.322 12.0964 108.322 10.177C108.322 8.30231 108.813 6.807 109.839 5.6911C110.844 4.59751 112.227 4.03956 113.968 4.03956ZM113.923 5.64646C112.808 5.64646 111.915 6.04819 111.268 6.85163C110.598 7.6774 110.286 8.77099 110.286 10.1324C110.286 11.5607 110.598 12.6543 111.245 13.4578C111.893 14.2612 112.808 14.6406 113.968 14.6406C115.084 14.6406 115.954 14.2389 116.579 13.4355C117.204 12.632 117.539 11.5384 117.539 10.1101C117.539 8.74867 117.204 7.65508 116.557 6.85163C115.91 6.04819 115.039 5.64646 113.923 5.64646Z" fill="#25282E"/>
<path d="M133.323 15.8904H131.426V6.807H131.359L127.944 15.8904H126.203L122.789 6.807H122.722V15.8904H120.825V4.37433H123.547L127.051 13.7033H127.096L130.6 4.37433H133.323V15.8904Z" fill="#25282E"/>
<path d="M137.665 15.8904H135.232V4.37433H137.13V13.7702H137.174L142.352 4.37433H144.785V15.8904H142.888V6.49455H142.843L137.665 15.8904Z" fill="#25282E"/>
<path d="M148.638 15.8904H146.741V4.37433H148.638V8.94953H154.396V4.37433H156.293V15.8904H154.396V10.6234H148.638V15.8904Z" fill="#25282E"/>
</svg>
