<svg width="36" height="36" viewBox="0 0 36 36" fill="none" xmlns="http://www.w3.org/2000/svg">
<path d="M18 36C17.9531 35.9531 17.25 35.1562 15.8906 33.6094C14.5781 32.0625 13.0312 30.0938 11.25 27.7031C9.51562 25.3125 7.96875 22.8516 6.60938 20.3203C5.29688 17.7891 4.59375 15.5156 4.5 13.5C4.59375 9.65625 5.90625 6.46875 8.4375 3.9375C10.9688 1.40625 14.1562 0.09375 18 0C21.8438 0.09375 25.0312 1.40625 27.5625 3.9375C30.0938 6.46875 31.4062 9.65625 31.5 13.5C31.4531 15.5156 30.75 17.7891 29.3906 20.3203C28.0781 22.8516 26.5312 25.3125 24.75 27.7031C23.0156 30.0938 21.4688 32.0625 20.1094 33.6094C18.7969 35.1562 18.0938 35.9531 18 36ZM18 9C16.3125 9.04688 15.0234 9.79688 14.1328 11.25C13.2891 12.75 13.2891 14.25 14.1328 15.75C15.0234 17.2031 16.3125 17.9531 18 18C19.6875 17.9531 20.9766 17.2031 21.8672 15.75C22.7109 14.25 22.7109 12.75 21.8672 11.25C20.9766 9.79688 19.6875 9.04688 18 9Z" fill="#2C4D84"/>
</svg>
